Jump_normalized_pl12_filtered_grf
version=1
nRows=22
nColumns=37
inDegrees=yes
endheader
time		1_ground_force_vx		1_ground_force_vy		1_ground_force_vz		1_ground_force_px		1_ground_force_py		1_ground_force_pz		1_ground_torque_x		1_ground_torque_y		1_ground_torque_z		2_ground_force_vx		2_ground_force_vy		2_ground_force_vz		2_ground_force_px		2_ground_force_py		2_ground_force_pz		2_ground_torque_x		2_ground_torque_y		2_ground_torque_z		3_ground_force_vx		3_ground_force_vy		3_ground_force_vz		3_ground_force_px		3_ground_force_py		3_ground_force_pz		3_ground_torque_x		3_ground_torque_y		3_ground_torque_z		4_ground_force_vx		4_ground_force_vy		4_ground_force_vz		4_ground_force_px		4_ground_force_py		4_ground_force_pz		4_ground_torque_x		4_ground_torque_y		4_ground_torque_z		
0.097833		-0.000000		0.000000		0.000000		0.089498		0.000000		0.244568		0.000000		0.000000		-0.000000		-0.000000		0.000000		0.000000		-0.155022		0.000000		0.264107		0.000000		-0.000000		0.000000		22.700792		9.469506		10.051813		0.374544		1.309566		1.918327		-0.269373		-0.112667		-0.119829		-20.661060		223.505423		486.221361		-0.265551		1.309769		1.927459		-1.103803		11.940610		25.976038		
0.099247		-0.000000		0.000000		0.000000		0.089498		0.000000		0.244568		0.000000		0.000000		-0.000000		-0.000000		0.000000		0.000000		-0.155022		0.000000		0.264107		0.000000		-0.000000		0.000000		22.512510		7.368114		6.316080		0.374552		1.309625		1.918324		-0.178579		-0.058624		-0.050416		-20.534726		219.673878		484.559255		-0.265574		1.309776		1.927372		-1.099584		11.762979		25.946945		
0.100662		-0.000000		0.000000		0.000000		0.089498		0.000000		0.244568		0.000000		0.000000		-0.000000		-0.000000		0.000000		0.000000		-0.155022		0.000000		0.264107		0.000000		-0.000000		0.000000		22.301956		5.598292		3.304267		0.374560		1.309686		1.918322		-0.128677		-0.032353		-0.019152		-20.431691		215.912648		482.732851		-0.265600		1.309783		1.927285		-1.096465		11.586919		25.905805		
0.102076		-0.000000		0.000000		0.000000		0.089498		0.000000		0.244568		0.000000		0.000000		-0.000000		-0.000000		0.000000		0.000000		-0.155022		0.000000		0.264107		0.000000		-0.000000		0.000000		22.074472		4.146492		0.976679		0.374565		1.309752		1.918322		-0.111750		-0.020993		-0.004947		-20.349592		212.223040		480.731716		-0.265630		1.309787		1.927197		-1.094334		11.412653		25.852171		
0.103490		0.000000		0.000000		-0.000000		0.089498		0.000000		0.244568		0.000000		-0.000000		-0.000000		-0.000000		0.000000		0.000000		-0.155022		0.000000		0.264107		0.000000		-0.000000		0.000000		21.836077		2.995199		-0.722006		0.374568		1.309820		1.918325		-0.113141		-0.015518		0.003742		-20.279166		208.605570		478.544403		-0.265661		1.309792		1.927113		-1.092705		11.240323		25.785476		
0.104904		0.000000		-0.000000		-0.000000		0.089498		0.000000		0.244568		-0.000000		-0.000000		0.000000		-0.000000		0.000000		0.000000		-0.155022		0.000000		0.264107		0.000000		-0.000000		0.000000		21.593382		2.125268		-1.853817		0.374568		1.309886		1.918329		-0.120105		-0.011815		0.010318		-20.206358		205.053090		476.159867		-0.265693		1.309796		1.927030		-1.090821		11.069585		25.705024		
0.106318		0.000000		-0.000000		-0.000000		0.089498		0.000000		0.244568		-0.000000		-0.000000		0.000000		-0.000000		-0.000000		0.000000		-0.155022		0.000000		0.264107		-0.000000		0.000000		-0.000000		21.353117		1.503514		-2.511943		0.374562		1.309952		1.918334		-0.125470		-0.008831		0.014763		-20.121419		201.568365		473.568869		-0.265727		1.309801		1.926953		-1.088150		10.900640		25.610203		
0.107732		0.000000		-0.000000		-0.000000		0.089498		0.000000		0.244568		-0.000000		-0.000000		0.000000		-0.000000		-0.000000		-0.000000		-0.155022		0.000000		0.264107		-0.000000		0.000000		-0.000000		21.121820		1.098769		-2.780119		0.374554		1.310016		1.918339		-0.126936		-0.006603		0.016708		-20.013434		198.143769		470.764930		-0.265760		1.309806		1.926878		-1.084086		10.733032		25.500361		
0.109146		0.000000		-0.000000		-0.000000		0.089498		0.000000		0.244568		-0.000000		-0.000000		0.000000		-0.000000		-0.000000		-0.000000		-0.155022		0.000000		0.264107		-0.000000		0.000000		-0.000000		20.905365		0.878027		-2.744493		0.374539		1.310074		1.918343		-0.124800		-0.005242		0.016385		-19.866923		194.780632		467.739740		-0.265791		1.309813		1.926812		-1.077769		10.566738		25.374625		
0.110561		0.000000		-0.000000		-0.000000		0.089498		0.000000		0.244568		-0.000000		-0.000000		0.000000		-0.000000		-0.000000		-0.000000		-0.155022		0.000000		0.264107		-0.000000		0.000000		-0.000000		20.709104		0.807072		-2.486742		0.374521		1.310129		1.918345		-0.120436		-0.004694		0.014463		-19.677384		191.479389		464.487224		-0.265820		1.309821		1.926751		-1.068926		10.401658		25.232157		
0.111975		0.000000		-0.000000		-0.000000		0.089498		0.000000		0.244568		-0.000000		-0.000000		0.000000		-0.000000		-0.000000		-0.000000		-0.155022		0.000000		0.264107		-0.000000		0.000000		-0.000000		20.537603		0.852971		-2.082249		0.374499		1.310177		1.918345		-0.115340		-0.004790		0.011694		-19.434375		188.243491		461.001604		-0.265846		1.309830		1.926697		-1.056959		10.237819		25.072057		
0.113389		0.000000		-0.000000		-0.000000		0.089498		0.000000		0.244568		-0.000000		-0.000000		0.000000		0.000000		-0.000000		-0.000000		-0.155022		0.000000		0.264107		-0.000000		0.000000		-0.000000		20.394661		0.983825		-1.598167		0.374474		1.310217		1.918340		-0.110657		-0.005337		0.008673		-19.129443		185.075967		457.279398		-0.265867		1.309838		1.926649		-1.041375		10.075230		24.893540		
0.114803		0.000000		-0.000000		-0.000000		0.089498		0.000000		0.244568		-0.000000		-0.000000		0.000000		0.000000		-0.000000		-0.000000		-0.155022		0.000000		0.264107		-0.000000		0.000000		-0.000000		20.282205		1.169237		-1.092424		0.374448		1.310254		1.918334		-0.106948		-0.006164		0.005763		-18.768350		181.985892		453.321715		-0.265885		1.309847		1.926606		-1.022471		9.914317		24.696287		
0.116217		0.000000		-0.000000		-0.000000		0.089498		0.000000		0.244568		-0.000000		-0.000000		0.000000		0.000000		-0.000000		-0.000000		-0.155022		0.000000		0.264107		-0.000000		0.000000		-0.000000		20.201660		1.384344		-0.607298		0.374421		1.310280		1.918320		-0.104289		-0.007146		0.003136		-18.336795		178.970919		449.133982		-0.265896		1.309854		1.926571		-0.999456		9.754895		24.480263		
0.117631		0.000000		-0.000000		-0.000000		0.089498		0.000000		0.244568		-0.000000		-0.000000		0.000000		0.000000		-0.000000		-0.000000		-0.155022		0.000000		0.264107		-0.000000		0.000000		-0.000000		20.153400		1.608494		-0.176097		0.374394		1.310303		1.918305		-0.102464		-0.008178		0.000896		-17.852908		176.045989		444.714734		-0.265905		1.309860		1.926537		-0.973315		9.597776		24.245213		
0.119045		-0.000000		-0.000000		-0.000000		0.089498		0.000000		0.244568		-0.000000		0.000000		0.000000		0.000000		-0.000000		-0.000000		-0.155022		0.000000		0.264107		-0.000000		0.000000		-0.000000		20.137044		1.825444		0.181894		0.374368		1.310318		1.918281		-0.101161		-0.009170		-0.000913		-17.306986		173.205895		440.072185		-0.265907		1.309862		1.926509		-0.943532		9.442731		23.991579		
0.120460		-0.000000		0.000000		0.000000		0.089498		0.000000		0.244568		0.000000		0.000000		-0.000000		0.000000		-0.000000		-0.000000		-0.155022		0.000000		0.264107		-0.000000		0.000000		-0.000000		20.151674		2.023000		0.453454		0.374345		1.310332		1.918257		-0.100120		-0.010051		-0.002252		-16.715370		170.460575		435.205174		-0.265906		1.309862		1.926482		-0.911015		9.290381		23.719398		
0.121874		-0.000000		0.000000		0.000000		0.089498		0.000000		0.244568		0.000000		0.000000		-0.000000		0.000000		0.000000		-0.000000		-0.155022		0.000000		0.264107		0.000000		0.000000		0.000000		20.195313		2.193080		0.636919		0.374324		1.310341		1.918228		-0.099203		-0.010773		-0.003128		-16.079528		167.804201		430.119525		-0.265902		1.309858		1.926455		-0.875878		9.140562		23.429295		
0.123288		-0.000000		0.000000		0.000000		0.089498		0.000000		0.244568		0.000000		0.000000		-0.000000		0.000000		0.000000		0.000000		-0.155022		0.000000		0.264107		0.000000		-0.000000		0.000000		20.264973		2.331726		0.737420		0.374306		1.310350		1.918197		-0.098396		-0.011322		-0.003580		-15.412039		165.231779		424.819865		-0.265895		1.309848		1.926429		-0.838844		8.993203		23.122012		
0.124702		-0.000000		0.000000		0.000000		0.089498		0.000000		0.244568		0.000000		0.000000		-0.000000		0.000000		0.000000		0.000000		-0.155022		0.000000		0.264107		0.000000		-0.000000		0.000000		20.357384		2.437624		0.764634		0.374290		1.310359		1.918165		-0.097758		-0.011706		-0.003672		-14.713569		162.731269		419.308303		-0.265886		1.309836		1.926401		-0.799990		8.847831		22.798131		
0.126116		-0.000000		0.000000		0.000000		0.089498		0.000000		0.244568		0.000000		0.000000		-0.000000		0.000000		0.000000		0.000000		-0.155022		0.000000		0.264107		0.000000		-0.000000		0.000000		20.468704		2.511746		0.730777		0.374276		1.310371		1.918132		-0.097369		-0.011948		-0.003477		-14.002346		160.288014		413.582917		-0.265875		1.309817		1.926372		-0.760344		8.703821		22.458018		
0.127530		-0.000000		0.000000		0.000000		0.089498		0.000000		0.244568		0.000000		0.000000		-0.000000		0.000000		0.000000		0.000000		-0.155022		0.000000		0.264107		0.000000		-0.000000		0.000000		20.594550		2.556654		0.650635		0.374264		1.310383		1.918100		-0.097286		-0.012077		-0.003073		-13.264214		157.879157		407.640943		-0.265864		1.309797		1.926342		-0.719175		8.560074		22.101947		
